<svg xmlns="http://www.w3.org/2000/svg" viewBox="0 0 405.36 102.05" preserveAspectRatio="xMidYMid meet">
  <defs>
    <style>.cls-1{fill:#20201e;}.cls-2{fill:#ee8016;}</style>
  </defs>
  <path class="cls-1" d="M116.15,24.53a11.92,11.92,0,0,1-3.51,2.35,14.08,14.08,0,0,1-6,1.11,11.38,11.38,0,0,1-8.86-3.81,14.26,14.26,0,0,1-3.43-9.89v-.44a14.27,14.27,0,0,1,3.4-9.91,11.49,11.49,0,0,1,9-3.79,13.67,13.67,0,0,1,5.28.94,11.62,11.62,0,0,1,3.84,2.48V8.48h-2.56l-.89-3.74a7.93,7.93,0,0,0-2.21-1.23A8.88,8.88,0,0,0,107.1,3a8.12,8.12,0,0,0-6.76,3A12.23,12.23,0,0,0,98,13.81v.48a12.53,12.53,0,0,0,2.29,7.84,7.52,7.52,0,0,0,6.33,3,11.81,11.81,0,0,0,3.62-.46,10,10,0,0,0,2.27-1V17.71l-4.44-.19V14.83h8.1Z"/>
  <path class="cls-1" d="M131.27,28a8.49,8.49,0,0,1-6.68-2.8,10.54,10.54,0,0,1-2.48-7.26v-.81A10.32,10.32,0,0,1,124.66,10a7.88,7.88,0,0,1,6.05-2.85,7.66,7.66,0,0,1,6.15,2.45A9.78,9.78,0,0,1,139,16.11V18.4h-13l-.06.09a8,8,0,0,0,1.47,4.77,4.68,4.68,0,0,0,4,1.86,9.25,9.25,0,0,0,3.26-.52A7.57,7.57,0,0,0,137,23.14l1.43,2.38a8.93,8.93,0,0,1-2.85,1.75A11.39,11.39,0,0,1,131.27,28Zm-.56-18a4,4,0,0,0-3.14,1.55,7.44,7.44,0,0,0-1.6,3.89l0,.1h9.27v-.49a5.59,5.59,0,0,0-1.15-3.6A4.1,4.1,0,0,0,130.71,10Z"/>
  <path class="cls-1" d="M143.2,25.26l3-.53V10.37l-3-.52V7.49h6.31l.25,2.62a6.55,6.55,0,0,1,2.49-2.21,7.62,7.62,0,0,1,3.53-.78,6.21,6.21,0,0,1,3.44.93,5.62,5.62,0,0,1,2.17,2.79,7.48,7.48,0,0,1,2.51-2.72,6.56,6.56,0,0,1,3.64-1,6,6,0,0,1,4.87,2.11c1.19,1.4,1.78,3.52,1.78,6.34v9.16l3,.53V27.6h-9.74V25.26l3-.53V15.54c0-2-.34-3.39-1-4.21a3.69,3.69,0,0,0-3-1.24,3.85,3.85,0,0,0-3.07,1.35A5.8,5.8,0,0,0,162,14.83v9.9l3,.53V27.6h-9.72V25.26l3-.53V15.54a6.61,6.61,0,0,0-1-4.14,3.67,3.67,0,0,0-3-1.31,5,5,0,0,0-2.75.69,4.4,4.4,0,0,0-1.65,1.93v12l3,.53V27.6H143.2Z"/>
  <path class="cls-1" d="M190.24,28a8.51,8.51,0,0,1-6.68-2.8,10.54,10.54,0,0,1-2.48-7.26v-.81A10.28,10.28,0,0,1,183.64,10a7.87,7.87,0,0,1,6.05-2.85,7.64,7.64,0,0,1,6.14,2.45,9.78,9.78,0,0,1,2.09,6.54V18.4h-13l-.05.09a7.93,7.93,0,0,0,1.46,4.77,4.71,4.71,0,0,0,4,1.86,9.25,9.25,0,0,0,3.26-.52,7.57,7.57,0,0,0,2.43-1.46l1.43,2.38a8.93,8.93,0,0,1-2.85,1.75A11.39,11.39,0,0,1,190.24,28Zm-.55-18a4,4,0,0,0-3.15,1.55A7.35,7.35,0,0,0,185,15.44l0,.1h9.28v-.49a5.59,5.59,0,0,0-1.16-3.6A4.07,4.07,0,0,0,189.69,10Z"/>
  <path class="cls-1" d="M212.07,28a8.51,8.51,0,0,1-6.68-2.8,10.54,10.54,0,0,1-2.48-7.26v-.81A10.28,10.28,0,0,1,205.47,10a7.86,7.86,0,0,1,6-2.85,7.65,7.65,0,0,1,6.15,2.45,9.78,9.78,0,0,1,2.09,6.54V18.4H206.7l0,.09a7.93,7.93,0,0,0,1.46,4.77,4.69,4.69,0,0,0,4,1.86,9.25,9.25,0,0,0,3.26-.52,7.57,7.57,0,0,0,2.43-1.46l1.43,2.38a8.93,8.93,0,0,1-2.85,1.75A11.39,11.39,0,0,1,212.07,28Zm-.56-18a4,4,0,0,0-3.14,1.55,7.35,7.35,0,0,0-1.59,3.89l0,.1h9.28v-.49a5.59,5.59,0,0,0-1.16-3.6A4.07,4.07,0,0,0,211.51,10Z"/>
  <path class="cls-1" d="M224.18,25.26l3-.53V10.37l-3-.52V7.49h6.3l.26,3A7.37,7.37,0,0,1,233.26,8a6.71,6.71,0,0,1,3.45-.88,6.54,6.54,0,0,1,5,1.9q1.78,1.9,1.79,5.88v9.83l3,.53V27.6h-9.72V25.26l3-.53V15a5.43,5.43,0,0,0-1.05-3.77,4.19,4.19,0,0,0-3.21-1.12,5.21,5.21,0,0,0-2.79.76,5.61,5.61,0,0,0-1.95,2.09V24.73l3,.53V27.6h-9.72Z"/>
  <path class="cls-1" d="M257,2.64V7.49h3.81V10.2H257V22.41a2.74,2.74,0,0,0,.58,2,2.14,2.14,0,0,0,1.55.58,7.37,7.37,0,0,0,1.09-.09c.4-.05.74-.11,1-.17l.51,2.51a4.78,4.78,0,0,1-1.53.54,9.17,9.17,0,0,1-2,.22,4.71,4.71,0,0,1-3.54-1.35,5.86,5.86,0,0,1-1.32-4.23V10.2h-3.18V7.49h3.18V2.64Z"/>
  <path class="cls-1" d="M275.07,28a8.49,8.49,0,0,1-6.68-2.8,10.54,10.54,0,0,1-2.48-7.26v-.81A10.28,10.28,0,0,1,268.47,10a7.86,7.86,0,0,1,6-2.85,7.66,7.66,0,0,1,6.15,2.45,9.78,9.78,0,0,1,2.09,6.54V18.4H269.7l-.05.09a7.93,7.93,0,0,0,1.46,4.77,4.69,4.69,0,0,0,4,1.86,9.25,9.25,0,0,0,3.26-.52,7.57,7.57,0,0,0,2.43-1.46l1.43,2.38a8.93,8.93,0,0,1-2.85,1.75A11.39,11.39,0,0,1,275.07,28Zm-.56-18a4,4,0,0,0-3.14,1.55,7.35,7.35,0,0,0-1.59,3.89l0,.1h9.28v-.49a5.59,5.59,0,0,0-1.16-3.6A4.09,4.09,0,0,0,274.51,10Z"/>
  <path class="cls-1" d="M116.76,61.84a12.18,12.18,0,0,1-3.84,2.35,16.82,16.82,0,0,1-6.4,1,11.71,11.71,0,0,1-8.92-3.67A13.41,13.41,0,0,1,94.17,52v-.93a14.3,14.3,0,0,1,3.39-9.88,11.29,11.29,0,0,1,8.85-3.81,16.14,16.14,0,0,1,5.81,1,12.72,12.72,0,0,1,4.38,2.74V46.6h-4L111.82,43a5.73,5.73,0,0,0-2-1,9.48,9.48,0,0,0-2.8-.38,6.52,6.52,0,0,0-5.52,2.62,11.14,11.14,0,0,0-2,6.86v1a10.38,10.38,0,0,0,1.94,6.59,6.65,6.65,0,0,0,5.57,2.46,10.12,10.12,0,0,0,2.65-.28,5.73,5.73,0,0,0,1.59-.65V55.55l-3.87-.29V51.45h9.31Z"/>
  <path class="cls-1" d="M130.6,65.24a9.06,9.06,0,0,1-6.95-2.79,10,10,0,0,1-2.6-7.08v-.74a11,11,0,0,1,2.46-7.38,9.19,9.19,0,0,1,12.93-.43,9.45,9.45,0,0,1,2.25,6.64v2.95h-12l0,.11A5.27,5.27,0,0,0,128,59.79a4.14,4.14,0,0,0,3.21,1.28,10.48,10.48,0,0,0,3-.36,13.67,13.67,0,0,0,2.6-1.14l1.47,3.34A10.79,10.79,0,0,1,135,64.57,14,14,0,0,1,130.6,65.24Zm-.48-16.69a2.82,2.82,0,0,0-2.38,1.15,6.07,6.07,0,0,0-1.08,3l.06.09h6.65v-.48a4.36,4.36,0,0,0-.81-2.76A2.9,2.9,0,0,0,130.12,48.55Z"/>
  <path class="cls-1" d="M152.25,65.24a9,9,0,0,1-6.95-2.79,10,10,0,0,1-2.61-7.08v-.74a11,11,0,0,1,2.47-7.38,9.18,9.18,0,0,1,12.92-.43,9.45,9.45,0,0,1,2.25,6.64v2.95h-12l0,.11a5.21,5.21,0,0,0,1.33,3.27,4.1,4.1,0,0,0,3.2,1.28,10.48,10.48,0,0,0,3-.36,13.73,13.73,0,0,0,2.61-1.14l1.46,3.34a10.66,10.66,0,0,1-3.22,1.66A13.88,13.88,0,0,1,152.25,65.24Zm-.49-16.69a2.84,2.84,0,0,0-2.38,1.15,6,6,0,0,0-1.07,3l.05.09H155v-.48a4.42,4.42,0,0,0-.8-2.76A2.92,2.92,0,0,0,151.76,48.55Z"/>
  <path class="cls-1" d="M164.67,61.59l2.6-.55V48.57L164.39,48V44.74h7.94l.24,2.94a6.36,6.36,0,0,1,1.82-2.44,4.08,4.08,0,0,1,2.58-.87,7.31,7.31,0,0,1,.91.06,7.78,7.78,0,0,1,.79.16l-.58,4.94-2.23-.05a3.8,3.8,0,0,0-2,.46,3,3,0,0,0-1.19,1.32V61l2.6.55v3.26H164.67Z"/>
  <path class="cls-1" d="M190.11,39.81v4.93h3.53v3.81h-3.53V58.79a2.36,2.36,0,0,0,.48,1.67,1.74,1.74,0,0,0,1.3.5,9.49,9.49,0,0,0,1,0c.28,0,.59-.09.94-.16l.46,3.92a15.53,15.53,0,0,1-1.8.42,13,13,0,0,1-1.94.14,5.78,5.78,0,0,1-4.32-1.55q-1.52-1.53-1.51-4.88V48.55h-2.95V44.74h2.95V39.81Z"/>
  <path class="cls-1" d="M198.07,61.59l2.61-.55V48.57L197.8,48V44.74h7.93l.24,2.94a6.36,6.36,0,0,1,1.82-2.44,4.11,4.11,0,0,1,2.59-.87,6.41,6.41,0,0,1,1.69.22l-.58,4.94-2.23-.05a3.8,3.8,0,0,0-2,.46,3,3,0,0,0-1.19,1.32V61l2.6.55v3.26H198.07Z"/>
  <path class="cls-1" d="M229.12,62.3a6.6,6.6,0,0,1-2.39,2.17,6.74,6.74,0,0,1-3.24.77,6.3,6.3,0,0,1-5-2q-1.8-2-1.8-6.33v-8.3L214.5,48V44.74h7.63V56.91a5.25,5.25,0,0,0,.74,3.15,2.58,2.58,0,0,0,2.18,1,5.36,5.36,0,0,0,2.22-.42,3.8,3.8,0,0,0,1.53-1.2V48.57L226.43,48V44.74h7.8V61l2.44.55v3.26h-7.2Z"/>
  <path class="cls-1" d="M240,61.59l2.62-.55V48.57l-2.9-.56V44.74h8.32V61l2.6.55v3.26H240Zm8-21.66h-5.42V35.86h5.42Z"/>
  <path class="cls-1" d="M266.89,62.39a6.62,6.62,0,0,1-2.24,2.12,6,6,0,0,1-2.95.73,6.8,6.8,0,0,1-5.76-2.72,11.58,11.58,0,0,1-2.06-7.17V55a13,13,0,0,1,2.06-7.67,6.69,6.69,0,0,1,5.8-2.92,5.52,5.52,0,0,1,2.71.66,6.47,6.47,0,0,1,2.12,1.87V39.69l-2.9-.56V35.86H272V61l2.6.55v3.26h-7.3Zm-7.58-7a8.23,8.23,0,0,0,.88,4.15A3.09,3.09,0,0,0,263.08,61a4.21,4.21,0,0,0,2.06-.48,3.84,3.84,0,0,0,1.43-1.4V50.61a4.07,4.07,0,0,0-1.42-1.49,3.73,3.73,0,0,0-2-.53,3,3,0,0,0-2.9,1.76,10,10,0,0,0-.91,4.61Z"/>
  <path class="cls-1" d="M287.33,65.24a9,9,0,0,1-6.95-2.79,10,10,0,0,1-2.61-7.08v-.74a11,11,0,0,1,2.47-7.38,9.18,9.18,0,0,1,12.92-.43,9.45,9.45,0,0,1,2.25,6.64v2.95h-12l0,.11a5.21,5.21,0,0,0,1.33,3.27,4.1,4.1,0,0,0,3.2,1.28,10.48,10.48,0,0,0,3-.36,13.4,13.4,0,0,0,2.6-1.14L295,62.91a10.66,10.66,0,0,1-3.22,1.66A13.88,13.88,0,0,1,287.33,65.24Zm-.49-16.69a2.84,2.84,0,0,0-2.38,1.15,6,6,0,0,0-1.07,3l.05.09h6.65v-.48a4.42,4.42,0,0,0-.8-2.76A2.92,2.92,0,0,0,286.84,48.55Z"/>
  <path class="cls-1" d="M299.05,61.59l2.6-.55V48.57L298.77,48V44.74h7.93l.24,2.88a7.37,7.37,0,0,1,2.48-2.4,6.38,6.38,0,0,1,3.29-.85,6.05,6.05,0,0,1,4.75,1.91q1.71,1.92,1.71,6V61l2.6.55v3.26H311.4V61.59l2.33-.55V52.3a4.1,4.1,0,0,0-.82-2.87,3.31,3.31,0,0,0-2.47-.84,4.15,4.15,0,0,0-1.93.43,4.08,4.08,0,0,0-1.44,1.24V61l2.2.55v3.26H299.05Z"/>
  <path class="cls-1" d="M344.31,55.35a11.73,11.73,0,0,1-2,7.19,6.79,6.79,0,0,1-5.8,2.7,5.88,5.88,0,0,1-5.25-2.87l-.39,2.48h-4.69V39.69l-2.88-.56V35.86h8.29v11A6.05,6.05,0,0,1,333.67,45a5.87,5.87,0,0,1,2.8-.65,6.65,6.65,0,0,1,5.83,2.89,13.22,13.22,0,0,1,2,7.7ZM338.9,55a10.51,10.51,0,0,0-.86-4.65,3,3,0,0,0-3-1.72,4,4,0,0,0-2.14.53,3.59,3.59,0,0,0-1.37,1.51v8.49A3.5,3.5,0,0,0,333,60.54a4.49,4.49,0,0,0,2.17.48,3.09,3.09,0,0,0,2.94-1.48,8.68,8.68,0,0,0,.83-4.19Z"/>
  <path class="cls-1" d="M357.81,65.24a9.06,9.06,0,0,1-6.95-2.79,10,10,0,0,1-2.6-7.08v-.74a11,11,0,0,1,2.46-7.38,9.19,9.19,0,0,1,12.93-.43,9.45,9.45,0,0,1,2.25,6.64v2.95h-12l0,.11a5.2,5.2,0,0,0,1.32,3.27,4.14,4.14,0,0,0,3.21,1.28,10.48,10.48,0,0,0,3-.36,13.67,13.67,0,0,0,2.6-1.14l1.47,3.34a10.66,10.66,0,0,1-3.22,1.66A13.9,13.9,0,0,1,357.81,65.24Zm-.48-16.69A2.82,2.82,0,0,0,355,49.7a6.07,6.07,0,0,0-1.08,3l.06.09h6.65v-.48a4.36,4.36,0,0,0-.81-2.76A2.9,2.9,0,0,0,357.33,48.55Z"/>
  <path class="cls-1" d="M370.24,61.59l2.6-.55V48.57L370,48V44.74h7.94l.24,2.94A6.36,6.36,0,0,1,380,45.24a4.06,4.06,0,0,1,2.58-.87,7,7,0,0,1,.9.06,6.79,6.79,0,0,1,.79.16l-.57,4.94-2.23-.05a3.78,3.78,0,0,0-2,.46,3,3,0,0,0-1.19,1.32V61l2.6.55v3.26H370.24Z"/>
  <path class="cls-1" d="M387.2,55a13,13,0,0,1,2.07-7.67,6.71,6.71,0,0,1,5.81-2.92,5.75,5.75,0,0,1,3,.75,6.63,6.63,0,0,1,2.2,2.15l.39-2.53h4.72V64.25a8.37,8.37,0,0,1-2.5,6.35A9.59,9.59,0,0,1,396,73a13.58,13.58,0,0,1-3.23-.42,15.34,15.34,0,0,1-3.16-1.14l1-3.81a18.11,18.11,0,0,0,2.6.88,11.2,11.2,0,0,0,2.75.32,3.64,3.64,0,0,0,3-1.2,5.24,5.24,0,0,0,1-3.37V62.91a5.88,5.88,0,0,1-2.1,1.73,6.14,6.14,0,0,1-2.77.6,6.84,6.84,0,0,1-5.77-2.73,11.51,11.51,0,0,1-2.07-7.16Zm5.43.39a8.12,8.12,0,0,0,.89,4.15,3.1,3.1,0,0,0,2.9,1.52,4.42,4.42,0,0,0,2.11-.46,3.39,3.39,0,0,0,1.38-1.33V50.5a3.67,3.67,0,0,0-1.38-1.41,4,4,0,0,0-2.07-.5,3,3,0,0,0-2.91,1.76,9.89,9.89,0,0,0-.92,4.61Z"/>
  <path class="cls-2" d="M55.29,61.27A30.74,30.74,0,0,1,47.94,67a13.88,13.88,0,0,1,4.74,10.11c0,8.93-9.65,16.19-21.5,16.19S9.68,86,9.68,77.08a14.07,14.07,0,0,1,5.19-10.52c3.45-3,8.39-4.89,13.93-5.36,1.34-.07,1.64-.08,2.5-.08,12.89,0,23.38-8.46,23.38-18.86,0-.37,0-.74,0-1.1l0-.33c0-.25-.05-.51-.09-.77s0-.23,0-.35l-.15-.77c0-.09,0-.19-.07-.29q-.12-.49-.27-1v0c-.12-.36-.24-.72-.38-1.08l0,0q-.19-.5-.42-1a1.3,1.3,0,0,0-.08-.17c-.14-.29-.29-.57-.45-.85a1.09,1.09,0,0,0-.08-.15,20.48,20.48,0,0,0-7-7.08,14.64,14.64,0,0,0,5.61-11.2,13.64,13.64,0,0,0-2.26-7.44H62.33V.1H33.48C32.76,0,32,0,31.3,0,20.37,0,11.48,7.21,11.48,16.08a14.65,14.65,0,0,0,5.62,11.2,22.17,22.17,0,0,0,14.2,4.89h0c5.48,0,10.21,2.39,12.39,5.83a7.21,7.21,0,0,1,.52.94.43.43,0,0,1,0,.07c.07.15.14.31.2.47s.15.4.21.6l.09.32c.06.26.12.51.16.77,0,.06,0,.11,0,.16,0,.31.06.61.06.93,0,5.56-6.14,10.09-13.69,10.09S17.6,47.82,17.6,42.26A7.93,7.93,0,0,1,18.9,38a30.88,30.88,0,0,1-8.25-4.59,16,16,0,0,0-2.73,8.85c0,5.29,2.71,10.07,7.08,13.5a30.93,30.93,0,0,0-7.33,5C2.9,65.1,0,70.82,0,77.08c0,13.77,14,25,31.18,25s31.18-11.2,31.18-25A22.06,22.06,0,0,0,55.29,61.27Zm-24-37.88c-5.59,0-10.13-3.28-10.13-7.31s4.54-7.3,10.13-7.3,10.13,3.27,10.13,7.3S36.88,23.39,31.3,23.39Z"/>
</svg>
